<svg fill="#FFFFFF" xmlns="http://www.w3.org/2000/svg"  viewBox="0 0 80 80" width="80px" height="80px"><path d="M 46 9.7929688 L 10 16.615234 L 10 17.443359 L 10 63.384766 L 46 70.207031 L 46 59.927734 C 46.346259 59.975526 46.684902 60 47 60 C 50.704405 60 53.704795 57.163233 53.974609 53.53125 C 57.40924 52.401257 60.281162 50.061064 62.083984 46.931641 C 62.384738 46.971396 62.688722 47 63 47 C 66.854149 47 70 43.854149 70 40 C 70 36.145851 66.854149 33 63 33 C 62.71039 33 62.427062 33.024103 62.146484 33.058594 C 60.347094 29.871835 57.447009 27.48895 53.96875 26.345703 C 53.641518 22.772395 50.662852 20 47 20 C 46.663285 20 46.329957 20.024342 46 20.068359 L 46 9.7929688 z M 44 12.207031 L 44 21.203125 A 1.0001 1.0001 0 0 0 44 21.515625 L 44 32.591797 A 1.0006579 1.0006579 0 0 0 44 32.691406 L 44 47.203125 A 1.0001 1.0001 0 0 0 44 47.515625 L 44 58.591797 A 1.0006579 1.0006579 0 0 0 44 58.691406 L 44 67.792969 L 12 61.728516 L 12 18.271484 L 44 12.207031 z M 41 15 A 1 1 0 0 0 40 16 A 1 1 0 0 0 41 17 A 1 1 0 0 0 42 16 A 1 1 0 0 0 41 15 z M 41 19 A 1 1 0 0 0 40 20 A 1 1 0 0 0 41 21 A 1 1 0 0 0 42 20 A 1 1 0 0 0 41 19 z M 47 22 C 49.83619 22 52 24.16381 52 27 C 52 29.83619 49.83619 32 47 32 C 46.676949 32 46.334718 31.95537 46 31.886719 L 46 22.099609 C 46.300841 22.037831 46.619978 22 47 22 z M 41 23 A 1 1 0 0 0 40 24 A 1 1 0 0 0 41 25 A 1 1 0 0 0 42 24 A 1 1 0 0 0 41 23 z M 41 27 A 1 1 0 0 0 40 28 A 1 1 0 0 0 41 29 A 1 1 0 0 0 42 28 A 1 1 0 0 0 41 27 z M 53.855469 28.429688 C 56.483706 29.418032 58.687381 31.225533 60.160156 33.611328 C 57.71507 34.705169 56 37.157007 56 40 C 56 42.821652 57.689718 45.257386 60.105469 46.363281 C 58.62774 48.711822 56.434057 50.486385 53.828125 51.458984 C 53.130865 48.324671 50.353236 46 47 46 C 46.663285 46 46.329957 46.024342 46 46.068359 L 46 33.927734 C 46.346259 33.975526 46.684902 34 47 34 C 50.393359 34 53.200548 31.620933 53.855469 28.429688 z M 26.53125 30 C 25.49925 30 24.571578 30.100781 23.642578 30.300781 C 22.713578 30.500781 21.991531 30.900781 21.269531 31.300781 C 20.547531 31.800781 20.032141 32.3 19.619141 33 C 19.206141 33.7 19 34.5 19 35.5 C 19 36.7 19.413766 37.699609 20.134766 38.599609 C 20.857766 39.499609 21.991547 40.200781 23.435547 40.800781 C 24.054547 41.100781 24.571891 41.3 25.087891 41.5 C 25.603891 41.7 26.014734 41.999219 26.427734 42.199219 C 26.736734 42.499219 27.047906 42.7 27.253906 43 C 27.460906 43.3 27.5625 43.6 27.5625 44 C 27.5625 44.2 27.460422 44.499219 27.357422 44.699219 C 27.254422 44.899219 27.048281 45.100781 26.738281 45.300781 C 26.428281 45.500781 26.118078 45.599219 25.705078 45.699219 C 25.293078 45.799219 24.777719 45.800781 24.261719 45.800781 C 23.332719 45.800781 22.506125 45.600781 21.578125 45.300781 C 20.650125 45.000781 19.825516 44.500391 19.103516 43.900391 L 19.103516 48 C 19.722516 48.3 20.547563 48.599219 21.476562 48.699219 C 22.405562 48.899219 23.43675 49 24.46875 49 C 25.50075 49 26.428422 48.899219 27.357422 48.699219 C 28.286422 48.499219 29.008469 48.200781 29.730469 47.800781 C 30.452469 47.400781 30.967859 46.799609 31.380859 46.099609 C 31.689859 45.399609 31.896047 44.6 31.998047 43.5 C 31.998047 42.8 31.895453 42.199609 31.689453 41.599609 C 31.379453 40.999609 31.06925 40.499609 30.65625 40.099609 C 30.24325 39.599609 29.728375 39.200391 29.109375 38.900391 C 28.490375 38.500391 27.768875 38.200391 27.046875 37.900391 C 26.531875 37.700391 26.014563 37.500781 25.601562 37.300781 C 25.188562 37.100781 24.776797 36.899219 24.466797 36.699219 C 24.157797 36.499219 23.950141 36.2 23.744141 36 C 23.641141 35.8 23.539062 35.499219 23.539062 35.199219 C 23.539062 34.899219 23.641141 34.600391 23.744141 34.400391 C 23.847141 34.200391 24.053281 34.000781 24.363281 33.800781 C 24.673281 33.600781 24.983484 33.500391 25.396484 33.400391 C 25.808484 33.300391 26.220328 33.300781 26.736328 33.300781 C 27.149328 33.300781 27.458094 33.300391 27.871094 33.400391 C 28.181094 33.400391 28.594812 33.499609 29.007812 33.599609 C 29.420813 33.699609 29.729578 33.8 30.142578 34 C 30.555578 34.2 30.863828 34.399609 31.173828 34.599609 L 31.173828 30.699219 C 30.554828 30.499219 29.833328 30.299219 29.111328 30.199219 C 28.389328 30.099219 27.56325 30 26.53125 30 z M 41 31 A 1 1 0 0 0 40 32 A 1 1 0 0 0 41 33 A 1 1 0 0 0 42 32 A 1 1 0 0 0 41 31 z M 41 35 A 1 1 0 0 0 40 36 A 1 1 0 0 0 41 37 A 1 1 0 0 0 42 36 A 1 1 0 0 0 41 35 z M 63 35 C 65.773268 35 68 37.226732 68 40 C 68 42.773268 65.773268 45 63 45 C 60.226732 45 58 42.773268 58 40 C 58 37.226732 60.226732 35 63 35 z M 41 39 A 1 1 0 0 0 40 40 A 1 1 0 0 0 41 41 A 1 1 0 0 0 42 40 A 1 1 0 0 0 41 39 z M 41 43 A 1 1 0 0 0 40 44 A 1 1 0 0 0 41 45 A 1 1 0 0 0 42 44 A 1 1 0 0 0 41 43 z M 41 47 A 1 1 0 0 0 40 48 A 1 1 0 0 0 41 49 A 1 1 0 0 0 42 48 A 1 1 0 0 0 41 47 z M 47 48 C 49.83619 48 52 50.16381 52 53 C 52 55.83619 49.83619 58 47 58 C 46.676949 58 46.334718 57.95537 46 57.886719 L 46 48.099609 C 46.300841 48.037831 46.619978 48 47 48 z M 41 51 A 1 1 0 0 0 40 52 A 1 1 0 0 0 41 53 A 1 1 0 0 0 42 52 A 1 1 0 0 0 41 51 z M 41 55 A 1 1 0 0 0 40 56 A 1 1 0 0 0 41 57 A 1 1 0 0 0 42 56 A 1 1 0 0 0 41 55 z M 41 59 A 1 1 0 0 0 40 60 A 1 1 0 0 0 41 61 A 1 1 0 0 0 42 60 A 1 1 0 0 0 41 59 z M 41 63 A 1 1 0 0 0 40 64 A 1 1 0 0 0 41 65 A 1 1 0 0 0 42 64 A 1 1 0 0 0 41 63 z"/></svg>